<?xml version="1.0" encoding="utf-8"?>
<!-- Generator: Adobe Illustrator 21.0.0, SVG Export Plug-In . SVG Version: 6.00 Build 0)  -->
<svg version="1.1" id="Layer_1" xmlns="http://www.w3.org/2000/svg" xmlns:xlink="http://www.w3.org/1999/xlink" x="0px" y="0px"
	 width="166px" height="50px" viewBox="0 0 166 50" style="enable-background:new 0 0 166 50;" xml:space="preserve">
<g>
	<rect x="92" style="fill:#84B806;" width="74" height="50"/>
	<rect style="fill:#FDFFF9;" width="92" height="50"/>
	<path style="fill:#FFFFFF;" d="M108.5,13.7c0.2,0.3,0.4,0.7,0.4,1.2c0,0.7-0.2,1.2-0.7,1.6c-0.5,0.4-1.1,0.6-1.9,0.6h-2.8
		c-0.2,0-0.3,0-0.4-0.1c-0.1-0.1-0.1-0.2-0.1-0.4V9.8c0-0.2,0-0.3,0.1-0.4c0.1-0.1,0.2-0.1,0.4-0.1h2.7c0.8,0,1.4,0.2,1.9,0.5
		c0.5,0.4,0.7,0.9,0.7,1.5c0,0.4-0.1,0.8-0.3,1.1c-0.2,0.3-0.5,0.5-0.9,0.7C107.9,13.1,108.3,13.4,108.5,13.7z M104,12.6h2
		c1.1,0,1.6-0.4,1.6-1.2c0-0.4-0.1-0.7-0.4-0.9s-0.7-0.3-1.2-0.3h-2V12.6z M107.4,15.8c0.3-0.2,0.4-0.5,0.4-1c0-0.4-0.1-0.8-0.4-1
		c-0.3-0.2-0.7-0.3-1.2-0.3H104v2.6h2.1C106.7,16.1,107.1,16,107.4,15.8z"/>
	<path style="fill:#FFFFFF;" d="M113.6,12c0,0.2,0,0.3-0.1,0.4c-0.1,0.1-0.2,0.1-0.4,0.1l-0.3,0c-0.5,0-0.8,0.2-1,0.5
		c-0.2,0.3-0.3,0.6-0.3,1v2.5c0,0.2-0.1,0.3-0.2,0.4c-0.1,0.1-0.2,0.1-0.4,0.1c-0.2,0-0.3,0-0.4-0.1s-0.2-0.2-0.2-0.4V12
		c0-0.2,0.1-0.3,0.2-0.4c0.1-0.1,0.2-0.1,0.4-0.1c0.1,0,0.3,0,0.4,0.1c0.1,0.1,0.1,0.2,0.1,0.4v0.5c0.1-0.3,0.4-0.6,0.6-0.7
		c0.3-0.2,0.6-0.3,0.9-0.3l0.2,0C113.4,11.5,113.6,11.7,113.6,12z"/>
	<path style="fill:#FFFFFF;" d="M114.3,10.3c-0.1-0.1-0.2-0.3-0.2-0.5c0-0.2,0.1-0.3,0.2-0.5s0.3-0.2,0.5-0.2c0.2,0,0.4,0.1,0.5,0.2
		s0.2,0.3,0.2,0.5c0,0.2-0.1,0.3-0.2,0.5c-0.1,0.1-0.3,0.2-0.5,0.2S114.4,10.4,114.3,10.3z M114.4,16.9c-0.1-0.1-0.2-0.2-0.2-0.4
		v-4.5c0-0.2,0.1-0.3,0.2-0.4c0.1-0.1,0.2-0.1,0.4-0.1c0.2,0,0.3,0,0.4,0.1c0.1,0.1,0.2,0.2,0.2,0.4v4.5c0,0.2-0.1,0.3-0.2,0.4
		c-0.1,0.1-0.2,0.1-0.4,0.1C114.7,17.1,114.5,17,114.4,16.9z"/>
	<path style="fill:#FFFFFF;" d="M121.7,13.7v2.9c0,0.2,0,0.3-0.1,0.4c-0.1,0.1-0.2,0.1-0.4,0.1c-0.2,0-0.3,0-0.4-0.1
		c-0.1-0.1-0.1-0.2-0.1-0.4v-2.8c0-0.5-0.1-0.8-0.3-1c-0.2-0.2-0.5-0.3-0.8-0.3c-0.4,0-0.8,0.1-1.1,0.4c-0.3,0.3-0.4,0.7-0.4,1.1
		v2.6c0,0.2,0,0.3-0.1,0.4c-0.1,0.1-0.2,0.1-0.4,0.1c-0.2,0-0.3,0-0.4-0.1c-0.1-0.1-0.2-0.2-0.2-0.4V12c0-0.2,0.1-0.3,0.2-0.4
		c0.1-0.1,0.2-0.1,0.4-0.1c0.2,0,0.3,0,0.4,0.1c0.1,0.1,0.1,0.2,0.1,0.4v0.5c0.2-0.3,0.4-0.6,0.7-0.7c0.3-0.2,0.7-0.3,1.1-0.3
		C121.1,11.5,121.7,12.2,121.7,13.7z"/>
	<path style="fill:#FFFFFF;" d="M128.1,11.7c0.1,0.1,0.1,0.2,0.1,0.4v4.5c0,0.8-0.2,1.4-0.7,1.9s-1.1,0.6-1.9,0.6
		c-0.8,0-1.5-0.2-2-0.5c-0.3-0.2-0.4-0.3-0.4-0.6c0-0.1,0-0.2,0.1-0.3c0.1-0.1,0.2-0.1,0.3-0.1c0.1,0,0.2,0.1,0.5,0.2
		c0.3,0.1,0.5,0.2,0.7,0.3c0.2,0.1,0.5,0.1,0.8,0.1c1,0,1.5-0.5,1.5-1.5v-0.8c-0.2,0.3-0.4,0.6-0.7,0.8c-0.3,0.2-0.7,0.3-1.1,0.3
		c-0.5,0-0.9-0.1-1.3-0.3c-0.4-0.2-0.7-0.5-0.9-0.9c-0.2-0.4-0.3-0.9-0.3-1.4s0.1-1,0.3-1.4c0.2-0.4,0.5-0.7,0.9-0.9
		s0.8-0.3,1.2-0.3c0.4,0,0.8,0.1,1.1,0.3c0.3,0.2,0.5,0.4,0.7,0.7V12c0-0.2,0-0.3,0.1-0.4s0.2-0.1,0.4-0.1
		C127.9,11.5,128,11.6,128.1,11.7z M126.7,15.5c0.3-0.3,0.4-0.8,0.4-1.3c0-0.5-0.1-1-0.4-1.3c-0.3-0.3-0.6-0.5-1.1-0.5
		c-0.5,0-0.9,0.2-1.1,0.5c-0.3,0.3-0.4,0.8-0.4,1.3c0,0.6,0.1,1,0.4,1.3s0.7,0.5,1.1,0.5C126.1,16,126.5,15.8,126.7,15.5z"/>
	<path style="fill:#FFFFFF;" d="M129.9,10.3c-0.1-0.1-0.2-0.3-0.2-0.5c0-0.2,0.1-0.3,0.2-0.5s0.3-0.2,0.5-0.2c0.2,0,0.4,0.1,0.5,0.2
		c0.1,0.1,0.2,0.3,0.2,0.5c0,0.2-0.1,0.3-0.2,0.5c-0.1,0.1-0.3,0.2-0.5,0.2S130,10.4,129.9,10.3z M130,16.9
		c-0.1-0.1-0.2-0.2-0.2-0.4v-4.5c0-0.2,0.1-0.3,0.2-0.4c0.1-0.1,0.2-0.1,0.4-0.1c0.2,0,0.3,0,0.4,0.1c0.1,0.1,0.2,0.2,0.2,0.4v4.5
		c0,0.2-0.1,0.3-0.2,0.4c-0.1,0.1-0.2,0.1-0.4,0.1C130.2,17.1,130.1,17,130,16.9z"/>
	<path style="fill:#FFFFFF;" d="M137.3,13.7v2.9c0,0.2,0,0.3-0.1,0.4c-0.1,0.1-0.2,0.1-0.4,0.1c-0.2,0-0.3,0-0.4-0.1
		c-0.1-0.1-0.1-0.2-0.1-0.4v-2.8c0-0.5-0.1-0.8-0.3-1c-0.2-0.2-0.5-0.3-0.8-0.3c-0.4,0-0.8,0.1-1.1,0.4c-0.3,0.3-0.4,0.7-0.4,1.1
		v2.6c0,0.2,0,0.3-0.1,0.4c-0.1,0.1-0.2,0.1-0.4,0.1c-0.2,0-0.3,0-0.4-0.1c-0.1-0.1-0.2-0.2-0.2-0.4V12c0-0.2,0.1-0.3,0.2-0.4
		c0.1-0.1,0.2-0.1,0.4-0.1c0.2,0,0.3,0,0.4,0.1s0.1,0.2,0.1,0.4v0.5c0.2-0.3,0.4-0.6,0.7-0.7c0.3-0.2,0.7-0.3,1.1-0.3
		C136.6,11.5,137.3,12.2,137.3,13.7z"/>
	<path style="fill:#FFFFFF;" d="M143.6,11.7c0.1,0.1,0.1,0.2,0.1,0.4v4.5c0,0.8-0.2,1.4-0.7,1.9s-1.1,0.6-1.9,0.6
		c-0.8,0-1.5-0.2-2-0.5c-0.3-0.2-0.4-0.3-0.4-0.6c0-0.1,0-0.2,0.1-0.3c0.1-0.1,0.2-0.1,0.3-0.1c0.1,0,0.2,0.1,0.5,0.2
		c0.3,0.1,0.5,0.2,0.7,0.3c0.2,0.1,0.5,0.1,0.8,0.1c1,0,1.5-0.5,1.5-1.5v-0.8c-0.2,0.3-0.4,0.6-0.7,0.8c-0.3,0.2-0.7,0.3-1.1,0.3
		c-0.5,0-0.9-0.1-1.3-0.3c-0.4-0.2-0.7-0.5-0.9-0.9c-0.2-0.4-0.3-0.9-0.3-1.4s0.1-1,0.3-1.4c0.2-0.4,0.5-0.7,0.9-0.9
		s0.8-0.3,1.2-0.3c0.4,0,0.8,0.1,1.1,0.3c0.3,0.2,0.5,0.4,0.7,0.7V12c0-0.2,0-0.3,0.1-0.4s0.2-0.1,0.4-0.1
		C143.4,11.5,143.5,11.6,143.6,11.7z M142.3,15.5c0.3-0.3,0.4-0.8,0.4-1.3c0-0.5-0.1-1-0.4-1.3c-0.3-0.3-0.6-0.5-1.1-0.5
		c-0.5,0-0.9,0.2-1.1,0.5c-0.3,0.3-0.4,0.8-0.4,1.3c0,0.6,0.1,1,0.4,1.3s0.7,0.5,1.1,0.5C141.6,16,142,15.8,142.3,15.5z"/>
	<path style="fill:#FFFFFF;" d="M109.1,26c0.1,0.1,0.1,0.2,0.1,0.3v2.6c0,0.2,0,0.4-0.1,0.5c-0.1,0.1-0.2,0.2-0.4,0.3
		c-0.3,0.1-0.6,0.2-1,0.3c-0.4,0.1-0.8,0.1-1.2,0.1c-0.8,0-1.5-0.2-2-0.5s-1-0.8-1.3-1.4s-0.5-1.3-0.5-2.1c0-0.8,0.1-1.5,0.5-2.1
		s0.7-1.1,1.3-1.4c0.6-0.3,1.2-0.5,2-0.5c0.5,0,1,0.1,1.4,0.2s0.8,0.4,1.1,0.7c0.1,0.1,0.2,0.3,0.2,0.4c0,0.1,0,0.2-0.1,0.3
		s-0.2,0.1-0.3,0.1c-0.1,0-0.1,0-0.2,0c-0.1,0-0.1-0.1-0.2-0.1c-0.4-0.3-0.7-0.4-1-0.6c-0.3-0.1-0.6-0.2-1-0.2
		c-0.8,0-1.5,0.3-1.9,0.8c-0.4,0.5-0.7,1.3-0.7,2.3c0,1,0.2,1.8,0.7,2.3s1.1,0.8,2,0.8c0.6,0,1.2-0.1,1.7-0.3v-2.2h-1.4
		c-0.1,0-0.3,0-0.3-0.1c-0.1-0.1-0.1-0.2-0.1-0.3c0-0.1,0-0.2,0.1-0.3c0.1-0.1,0.2-0.1,0.3-0.1h2C108.9,25.9,109,25.9,109.1,26z"/>
	<path style="fill:#FFFFFF;" d="M114.1,25c0,0.2,0,0.3-0.1,0.4c-0.1,0.1-0.2,0.1-0.4,0.1l-0.3,0c-0.5,0-0.8,0.2-1,0.5
		c-0.2,0.3-0.3,0.6-0.3,1v2.5c0,0.2-0.1,0.3-0.2,0.4c-0.1,0.1-0.2,0.1-0.4,0.1s-0.3,0-0.4-0.1c-0.1-0.1-0.2-0.2-0.2-0.4V25
		c0-0.2,0.1-0.3,0.2-0.4c0.1-0.1,0.2-0.1,0.4-0.1c0.1,0,0.3,0,0.4,0.1c0.1,0.1,0.1,0.2,0.1,0.4v0.5c0.1-0.3,0.4-0.6,0.6-0.7
		c0.3-0.2,0.6-0.3,0.9-0.3l0.2,0C113.9,24.5,114.1,24.7,114.1,25z"/>
	<path style="fill:#FFFFFF;" d="M115.6,29.7c-0.4-0.2-0.7-0.6-0.9-1c-0.2-0.4-0.3-0.9-0.3-1.5c0-0.6,0.1-1.1,0.3-1.5
		c0.2-0.4,0.5-0.7,0.9-1c0.4-0.2,0.9-0.3,1.4-0.3c0.5,0,1,0.1,1.4,0.3c0.4,0.2,0.7,0.6,0.9,1c0.2,0.4,0.3,0.9,0.3,1.5
		c0,0.6-0.1,1-0.3,1.5c-0.2,0.4-0.5,0.7-0.9,1c-0.4,0.2-0.9,0.3-1.4,0.3C116.5,30.1,116,30,115.6,29.7z M118.2,28.7
		c0.3-0.3,0.4-0.8,0.4-1.4c0-0.6-0.1-1.1-0.4-1.4c-0.3-0.3-0.6-0.5-1.1-0.5c-0.5,0-0.9,0.2-1.1,0.5c-0.3,0.3-0.4,0.8-0.4,1.4
		c0,0.6,0.1,1.1,0.4,1.4c0.3,0.3,0.6,0.5,1.1,0.5C117.5,29.2,117.9,29,118.2,28.7z"/>
	<path style="fill:#FFFFFF;" d="M128.5,24.4c0.1,0,0.3,0,0.4,0.1c0.1,0.1,0.2,0.2,0.2,0.3c0,0.1,0,0.1,0,0.2l-1.7,4.5
		c0,0.1-0.1,0.2-0.2,0.3c-0.1,0.1-0.2,0.1-0.3,0.1c-0.1,0-0.2,0-0.3-0.1c-0.1-0.1-0.2-0.1-0.2-0.3l-1.5-3.5l-1.3,3.6
		c0,0.1-0.1,0.2-0.2,0.3c-0.1,0.1-0.2,0.1-0.3,0.1c-0.1,0-0.2,0-0.3-0.1c-0.1-0.1-0.2-0.1-0.2-0.3l-1.9-4.4c0-0.1,0-0.1,0-0.2
		c0-0.1,0.1-0.3,0.2-0.4c0.1-0.1,0.3-0.1,0.4-0.2c0.2,0,0.4,0.1,0.5,0.3l1.5,3.7l1.4-3.8c0-0.1,0.1-0.2,0.2-0.3
		c0.1-0.1,0.2-0.1,0.3-0.1c0.1,0,0.2,0,0.3,0.1c0.1,0.1,0.2,0.1,0.2,0.3l1.5,3.7l1.3-3.8C128.1,24.6,128.3,24.4,128.5,24.4z"/>
	<path style="fill:#FFFFFF;" d="M133.3,29.3c0.1,0.1,0.1,0.2,0.1,0.3c0,0.1-0.1,0.3-0.2,0.3c-0.1,0.1-0.3,0.1-0.5,0.1l-0.3,0
		c-0.6,0-1-0.2-1.3-0.5c-0.3-0.3-0.4-0.8-0.4-1.4v-2.6H130c-0.3,0-0.5-0.1-0.5-0.4c0-0.1,0-0.2,0.1-0.3c0.1-0.1,0.2-0.1,0.4-0.1h0.7
		v-1.1c0-0.2,0-0.3,0.1-0.4c0.1-0.1,0.2-0.1,0.4-0.1c0.2,0,0.3,0,0.4,0.1c0.1,0.1,0.2,0.2,0.2,0.4v1.1h1.1c0.2,0,0.3,0,0.4,0.1
		c0.1,0.1,0.1,0.2,0.1,0.3c0,0.1,0,0.2-0.1,0.3s-0.2,0.1-0.4,0.1h-1.1v2.7c0,0.3,0.1,0.6,0.2,0.8c0.1,0.2,0.4,0.3,0.7,0.3l0.3,0
		C133.1,29.2,133.2,29.3,133.3,29.3z"/>
	<path style="fill:#FFFFFF;" d="M139,26.7v2.9c0,0.2-0.1,0.3-0.2,0.4c-0.1,0.1-0.2,0.1-0.4,0.1s-0.3,0-0.4-0.1
		c-0.1-0.1-0.1-0.2-0.1-0.4v-2.8c0-0.4-0.1-0.8-0.3-1s-0.5-0.3-0.8-0.3c-0.4,0-0.8,0.1-1.1,0.4c-0.3,0.3-0.4,0.7-0.4,1.1v2.6
		c0,0.2,0,0.3-0.1,0.4c-0.1,0.1-0.2,0.1-0.4,0.1c-0.2,0-0.3,0-0.4-0.1c-0.1-0.1-0.2-0.2-0.2-0.4v-6.8c0-0.2,0.1-0.3,0.2-0.4
		c0.1-0.1,0.2-0.1,0.4-0.1c0.2,0,0.3,0,0.4,0.1c0.1,0.1,0.1,0.2,0.1,0.4v2.8c0.2-0.3,0.4-0.5,0.7-0.7c0.3-0.2,0.7-0.2,1.1-0.2
		C138.3,24.5,139,25.2,139,26.7z"/>
	<path style="fill:#FFFFFF;" d="M146.4,29.3c0.1,0.1,0.1,0.2,0.1,0.3c0,0.1-0.1,0.3-0.2,0.3c-0.1,0.1-0.3,0.1-0.5,0.1l-0.3,0
		c-0.6,0-1-0.2-1.3-0.5c-0.3-0.3-0.4-0.8-0.4-1.4v-2.6h-0.7c-0.3,0-0.5-0.1-0.5-0.4c0-0.1,0-0.2,0.1-0.3c0.1-0.1,0.2-0.1,0.4-0.1
		h0.7v-1.1c0-0.2,0.1-0.3,0.1-0.4c0.1-0.1,0.2-0.1,0.4-0.1c0.2,0,0.3,0,0.4,0.1c0.1,0.1,0.2,0.2,0.2,0.4v1.1h1.1
		c0.2,0,0.3,0,0.4,0.1c0.1,0.1,0.1,0.2,0.1,0.3c0,0.1,0,0.2-0.1,0.3c-0.1,0.1-0.2,0.1-0.4,0.1h-1.1v2.7c0,0.3,0.1,0.6,0.2,0.8
		s0.4,0.3,0.7,0.3l0.3,0C146.2,29.2,146.3,29.3,146.4,29.3z"/>
	<path style="fill:#FFFFFF;" d="M148.2,29.7c-0.4-0.2-0.7-0.6-0.9-1s-0.3-0.9-0.3-1.5c0-0.6,0.1-1.1,0.3-1.5s0.5-0.7,0.9-1
		c0.4-0.2,0.9-0.3,1.4-0.3s1,0.1,1.4,0.3c0.4,0.2,0.7,0.6,0.9,1s0.3,0.9,0.3,1.5c0,0.6-0.1,1-0.3,1.5s-0.5,0.7-0.9,1
		s-0.9,0.3-1.4,0.3S148.6,30,148.2,29.7z M150.7,28.7c0.3-0.3,0.4-0.8,0.4-1.4c0-0.6-0.1-1.1-0.4-1.4c-0.3-0.3-0.6-0.5-1.1-0.5
		s-0.9,0.2-1.1,0.5s-0.4,0.8-0.4,1.4c0,0.6,0.1,1.1,0.4,1.4c0.3,0.3,0.6,0.5,1.1,0.5S150.5,29,150.7,28.7z"/>
	<text transform="matrix(1 0 0 1 152.7212 30)" style="fill:#FFFFFF; font-family:'Nunito-SemiBold'; font-size:11px;"> </text>
	<path style="fill:#FFFFFF;" d="M109.1,42.6c0,0.1-0.1,0.2-0.2,0.3s-0.2,0.1-0.4,0.1c-0.2,0-0.4-0.1-0.5-0.3l-1.5-2.3
		c-0.2-0.3-0.3-0.4-0.5-0.6c-0.2-0.1-0.4-0.2-0.7-0.2H104v2.7c0,0.2,0,0.3-0.1,0.4c-0.1,0.1-0.2,0.2-0.4,0.2c-0.2,0-0.3-0.1-0.4-0.2
		c-0.1-0.1-0.2-0.2-0.2-0.4v-6.7c0-0.2,0-0.3,0.1-0.4c0.1-0.1,0.2-0.1,0.4-0.1h2.7c0.9,0,1.5,0.2,2,0.6c0.5,0.4,0.7,0.9,0.7,1.7
		c0,0.6-0.2,1.1-0.5,1.5s-0.8,0.6-1.5,0.7c0.2,0.1,0.4,0.1,0.5,0.3c0.2,0.1,0.3,0.3,0.5,0.5l1.1,1.8C109,42.4,109.1,42.5,109.1,42.6
		z M106.1,38.9c0.6,0,1-0.1,1.3-0.3c0.3-0.2,0.4-0.6,0.4-1c0-0.5-0.1-0.8-0.4-1c-0.3-0.2-0.7-0.3-1.3-0.3H104v2.7H106.1z"/>
	<path style="fill:#FFFFFF;" d="M114.9,37.7c0.1,0.1,0.1,0.2,0.1,0.4v4.5c0,0.2-0.1,0.3-0.2,0.4c-0.1,0.1-0.2,0.1-0.4,0.1
		c-0.2,0-0.3,0-0.4-0.1c-0.1-0.1-0.1-0.2-0.1-0.4v-0.4c-0.2,0.3-0.4,0.5-0.7,0.7s-0.6,0.2-1,0.2c-1.3,0-2-0.7-2-2.2v-2.9
		c0-0.2,0-0.3,0.1-0.4s0.2-0.1,0.4-0.1c0.2,0,0.3,0,0.4,0.1c0.1,0.1,0.1,0.2,0.1,0.4v2.8c0,0.4,0.1,0.8,0.3,1s0.4,0.3,0.8,0.3
		c0.4,0,0.8-0.1,1-0.4c0.3-0.3,0.4-0.6,0.4-1.1v-2.6c0-0.2,0.1-0.3,0.2-0.4c0.1-0.1,0.2-0.1,0.4-0.1
		C114.7,37.5,114.8,37.6,114.9,37.7z"/>
	<path style="fill:#FFFFFF;" d="M120,38c0,0.2,0,0.3-0.1,0.4c-0.1,0.1-0.2,0.1-0.4,0.1l-0.3,0c-0.5,0-0.8,0.2-1,0.5
		c-0.2,0.3-0.3,0.6-0.3,1v2.5c0,0.2-0.1,0.3-0.2,0.4c-0.1,0.1-0.2,0.1-0.4,0.1c-0.2,0-0.3,0-0.4-0.1s-0.2-0.2-0.2-0.4V38
		c0-0.2,0.1-0.3,0.2-0.4c0.1-0.1,0.2-0.1,0.4-0.1c0.1,0,0.3,0,0.4,0.1c0.1,0.1,0.1,0.2,0.1,0.4v0.5c0.1-0.3,0.4-0.6,0.6-0.7
		c0.3-0.2,0.6-0.3,0.9-0.3l0.2,0C119.8,37.5,120,37.7,120,38z"/>
	<path style="fill:#FFFFFF;" d="M124.5,38c0.3,0.4,0.5,0.9,0.5,1.6v2.8c0,0.2,0,0.3-0.1,0.4c-0.1,0.1-0.2,0.1-0.4,0.1
		c-0.2,0-0.3,0-0.4-0.1c-0.1-0.1-0.1-0.2-0.1-0.4v-0.4c-0.1,0.3-0.3,0.5-0.6,0.7c-0.3,0.2-0.6,0.2-1,0.2c-0.4,0-0.7-0.1-1-0.2
		c-0.3-0.1-0.5-0.3-0.7-0.6c-0.2-0.3-0.3-0.5-0.3-0.8c0-0.4,0.1-0.7,0.3-0.9c0.2-0.2,0.5-0.4,1-0.5c0.5-0.1,1.1-0.1,1.9-0.1h0.3
		v-0.3c0-0.4-0.1-0.7-0.3-0.9c-0.2-0.2-0.4-0.3-0.8-0.3c-0.3,0-0.5,0-0.7,0.1c-0.2,0.1-0.5,0.2-0.7,0.3c-0.2,0.1-0.3,0.2-0.4,0.2
		c-0.1,0-0.2,0-0.3-0.1c-0.1-0.1-0.1-0.2-0.1-0.3c0-0.1,0-0.2,0.1-0.3c0.1-0.1,0.2-0.2,0.3-0.2c0.3-0.1,0.6-0.3,0.9-0.3
		c0.3-0.1,0.7-0.1,1-0.1C123.6,37.5,124.1,37.7,124.5,38z M123.5,41.8c0.3-0.3,0.4-0.6,0.4-1.1v-0.3h-0.2c-0.6,0-1,0-1.3,0.1
		c-0.3,0.1-0.5,0.1-0.7,0.3c-0.1,0.1-0.2,0.3-0.2,0.5c0,0.3,0.1,0.5,0.3,0.6c0.2,0.2,0.4,0.3,0.7,0.3
		C122.9,42.3,123.3,42.1,123.5,41.8z"/>
	<path style="fill:#FFFFFF;" d="M126.7,42.9c-0.1-0.1-0.2-0.2-0.2-0.4v-6.8c0-0.2,0.1-0.3,0.2-0.4c0.1-0.1,0.2-0.1,0.4-0.1
		c0.2,0,0.3,0,0.4,0.1c0.1,0.1,0.2,0.2,0.2,0.4v6.8c0,0.2-0.1,0.3-0.2,0.4s-0.2,0.1-0.4,0.1C126.9,43.1,126.8,43,126.7,42.9z"/>
	<text transform="matrix(1 0 0 1 128.3892 43)" style="fill:#FFFFFF; font-family:'Nunito-SemiBold'; font-size:11px;"> </text>
	<path style="fill:#FFFFFF;" d="M132.3,42.9c-0.1-0.1-0.2-0.2-0.2-0.4v-6.7c0-0.2,0.1-0.3,0.2-0.4c0.1-0.1,0.2-0.2,0.4-0.2
		c0.2,0,0.3,0.1,0.4,0.2c0.1,0.1,0.2,0.2,0.2,0.4v6.7c0,0.2,0,0.3-0.1,0.4c-0.1,0.1-0.2,0.2-0.4,0.2C132.6,43.1,132.5,43,132.3,42.9
		z"/>
	<path style="fill:#FFFFFF;" d="M139.8,39.7v2.9c0,0.2,0,0.3-0.1,0.4c-0.1,0.1-0.2,0.1-0.4,0.1c-0.2,0-0.3,0-0.4-0.1
		c-0.1-0.1-0.1-0.2-0.1-0.4v-2.8c0-0.5-0.1-0.8-0.3-1c-0.2-0.2-0.5-0.3-0.8-0.3c-0.4,0-0.8,0.1-1.1,0.4c-0.3,0.3-0.4,0.7-0.4,1.1
		v2.6c0,0.2,0,0.3-0.1,0.4c-0.1,0.1-0.2,0.1-0.4,0.1c-0.2,0-0.3,0-0.4-0.1c-0.1-0.1-0.2-0.2-0.2-0.4V38c0-0.2,0.1-0.3,0.2-0.4
		c0.1-0.1,0.2-0.1,0.4-0.1c0.2,0,0.3,0,0.4,0.1c0.1,0.1,0.1,0.2,0.1,0.4v0.5c0.2-0.3,0.4-0.6,0.7-0.7c0.3-0.2,0.7-0.3,1.1-0.3
		C139.2,37.5,139.8,38.2,139.8,39.7z"/>
	<path style="fill:#FFFFFF;" d="M146.1,35.3c0.1,0.1,0.2,0.2,0.2,0.4v6.8c0,0.2,0,0.3-0.1,0.4c-0.1,0.1-0.2,0.1-0.4,0.1
		c-0.2,0-0.3,0-0.4-0.1c-0.1-0.1-0.1-0.2-0.1-0.4v-0.4c-0.2,0.3-0.4,0.6-0.7,0.7c-0.3,0.2-0.7,0.3-1.1,0.3c-0.5,0-0.9-0.1-1.2-0.4
		c-0.4-0.2-0.6-0.6-0.8-1c-0.2-0.4-0.3-0.9-0.3-1.5c0-0.6,0.1-1,0.3-1.5c0.2-0.4,0.5-0.7,0.8-1c0.4-0.2,0.8-0.3,1.2-0.3
		c0.4,0,0.8,0.1,1.1,0.3c0.3,0.2,0.5,0.4,0.7,0.7v-2.8c0-0.2,0-0.3,0.1-0.4c0.1-0.1,0.2-0.1,0.4-0.1C145.9,35.2,146,35.2,146.1,35.3
		z M144.8,41.7c0.3-0.3,0.4-0.8,0.4-1.4s-0.1-1.1-0.4-1.4c-0.3-0.3-0.6-0.5-1.1-0.5c-0.5,0-0.9,0.2-1.1,0.5s-0.4,0.8-0.4,1.4
		c0,0.6,0.1,1.1,0.4,1.4s0.6,0.5,1.1,0.5C144.2,42.2,144.5,42,144.8,41.7z"/>
	<path style="fill:#FFFFFF;" d="M147.9,36.3c-0.1-0.1-0.2-0.3-0.2-0.5c0-0.2,0.1-0.3,0.2-0.5c0.1-0.1,0.3-0.2,0.5-0.2
		c0.2,0,0.4,0.1,0.5,0.2s0.2,0.3,0.2,0.5c0,0.2-0.1,0.3-0.2,0.5c-0.1,0.1-0.3,0.2-0.5,0.2C148.2,36.4,148,36.4,147.9,36.3z
		 M148,42.9c-0.1-0.1-0.2-0.2-0.2-0.4v-4.5c0-0.2,0.1-0.3,0.2-0.4c0.1-0.1,0.2-0.1,0.4-0.1c0.2,0,0.3,0,0.4,0.1
		c0.1,0.1,0.2,0.2,0.2,0.4v4.5c0,0.2-0.1,0.3-0.2,0.4s-0.2,0.1-0.4,0.1C148.2,43.1,148.1,43,148,42.9z"/>
	<path style="fill:#FFFFFF;" d="M154.3,38c0.3,0.4,0.5,0.9,0.5,1.6v2.8c0,0.2,0,0.3-0.1,0.4c-0.1,0.1-0.2,0.1-0.4,0.1
		c-0.2,0-0.3,0-0.4-0.1c-0.1-0.1-0.1-0.2-0.1-0.4v-0.4c-0.1,0.3-0.3,0.5-0.6,0.7s-0.6,0.2-1,0.2c-0.4,0-0.7-0.1-1-0.2
		c-0.3-0.1-0.5-0.3-0.7-0.6c-0.2-0.3-0.3-0.5-0.3-0.8c0-0.4,0.1-0.7,0.3-0.9c0.2-0.2,0.5-0.4,1-0.5c0.5-0.1,1.1-0.1,1.9-0.1h0.3
		v-0.3c0-0.4-0.1-0.7-0.3-0.9c-0.2-0.2-0.4-0.3-0.8-0.3c-0.3,0-0.5,0-0.7,0.1c-0.2,0.1-0.5,0.2-0.7,0.3c-0.2,0.1-0.3,0.2-0.4,0.2
		c-0.1,0-0.2,0-0.3-0.1c-0.1-0.1-0.1-0.2-0.1-0.3c0-0.1,0-0.2,0.1-0.3c0.1-0.1,0.2-0.2,0.3-0.2c0.3-0.1,0.6-0.3,0.9-0.3
		c0.3-0.1,0.7-0.1,1-0.1C153.5,37.5,154,37.7,154.3,38z M153.4,41.8c0.3-0.3,0.4-0.6,0.4-1.1v-0.3h-0.2c-0.6,0-1,0-1.3,0.1
		c-0.3,0.1-0.5,0.1-0.7,0.3c-0.1,0.1-0.2,0.3-0.2,0.5c0,0.3,0.1,0.5,0.3,0.6s0.4,0.3,0.7,0.3C152.8,42.3,153.1,42.1,153.4,41.8z"/>
	<path style="fill:#F31E3E;" d="M23.4,26.5c0.6,0.6,1,1.2,1.3,2c0.3,0.8,0.5,1.5,0.5,2.4c0,0.9-0.2,1.7-0.5,2.4
		c-0.3,0.8-0.8,1.4-1.3,2s-1.2,1-2,1.3C20.7,36.9,19.9,37,19,37H9V14.6h8.3c0.7,0,1.4,0.1,2.1,0.4c0.6,0.3,1.2,0.7,1.7,1.1
		c0.5,0.5,0.9,1.1,1.1,1.7c0.3,0.6,0.4,1.3,0.4,2.1c0,0.7-0.1,1.4-0.4,2.1c-0.3,0.6-0.7,1.2-1.1,1.7c-0.4,0.4-0.9,0.8-1.5,1
		c0.7,0.1,1.4,0.3,2.1,0.6C22.3,25.6,22.9,26,23.4,26.5z M13.6,15.2v9.4h3.7c0.6,0,1.3-0.1,1.8-0.4c0.6-0.2,1.1-0.6,1.5-1
		c0.4-0.4,0.8-0.9,1-1.5c0.2-0.6,0.4-1.2,0.4-1.8c0-0.7-0.1-1.3-0.4-1.8c-0.2-0.6-0.6-1.1-1-1.5c-0.4-0.4-0.9-0.8-1.5-1
		c-0.6-0.2-1.2-0.4-1.8-0.4H13.6z M23,34.8c0.5-0.5,0.9-1.1,1.2-1.8c0.3-0.7,0.4-1.4,0.4-2.2c0-0.8-0.1-1.5-0.4-2.2
		c-0.3-0.7-0.7-1.3-1.2-1.8c-0.5-0.5-1.1-0.9-1.8-1.2c-0.7-0.3-1.4-0.4-2.2-0.4h-5.4v11.2H19c0.8,0,1.5-0.1,2.2-0.4
		C21.9,35.7,22.5,35.3,23,34.8z"/>
	<path style="fill:#FFBB00;" d="M41.6,26.4c3.5,0,6.8,0,9.8,0c0,1.5-0.3,3.1-0.8,4.6h0c-0.8,1.9-1.9,3.5-3.6,4.8
		c-0.9,0.7-2,1.3-3.1,1.7c-1.1,0.4-2.3,0.6-3.6,0.6c-1.2,0-2.4-0.2-3.5-0.5c-1.1-0.4-2.1-0.9-3-1.6c-0.9-0.7-1.7-1.5-2.4-2.4
		c-0.7-0.9-1.2-1.9-1.6-3c-0.4-1.1-0.6-2.2-0.6-3.5v-1.5c0-1.2,0.2-2.4,0.6-3.5c0.4-1.1,0.9-2.1,1.6-3c0.7-0.9,1.5-1.7,2.4-2.4
		c0.9-0.7,1.9-1.2,3-1.6c1.1-0.4,2.3-0.5,3.5-0.5c1.3,0,2.4,0.2,3.6,0.6c1.1,0.4,2.2,1,3.1,1.7c0.9,0.7,1.8,1.6,2.4,2.6
		c0.7,1,1.2,2.1,1.5,3.3L50.5,23L50.3,23c-0.3-1.1-0.8-2.2-1.4-3.1c-0.6-0.9-1.4-1.8-2.3-2.5c-0.9-0.7-1.9-1.2-2.9-1.6
		c-1.1-0.4-2.2-0.6-3.4-0.6v4c-0.9,0-1.7,0.2-2.5,0.5c-0.8,0.3-1.4,0.8-2,1.4c-0.6,0.6-1,1.3-1.4,2c-0.3,0.8-0.5,1.6-0.5,2.5v1.5
		c0,0.9,0.2,1.7,0.5,2.5c0.3,0.8,0.8,1.4,1.4,2c0.6,0.6,1.3,1,2,1.4c0.8,0.3,1.6,0.5,2.5,0.5v4c1.2,0,2.3-0.2,3.4-0.6
		c1.1-0.4,2-0.9,2.9-1.6c1.5-1.1,2.6-2.6,3.3-4.3h-10L41.6,26.4z"/>
	<path style="fill:#84B806;" d="M68.4,27c-0.4,0.3-0.8,0.6-1.2,0.9c-0.3,0.2-0.7,0.4-1,0.5l4.4,8.5H70l-4.3-8.3l0.3-0.1
		c-0.4,0.2-0.9,0.3-1.4,0.4C64,29,63.5,29,63,29h-3.1v7.9h-4.5V14.6h0.3h0H63c0.5,0,1,0,1.5,0.1c0.5,0.1,0.9,0.2,1.4,0.4h0
		c0.4,0.2,0.9,0.4,1.3,0.7c0.4,0.3,0.8,0.6,1.2,0.9s0.7,0.7,1,1.1c0.3,0.4,0.5,0.8,0.7,1.2c0.2,0.4,0.3,0.8,0.4,1.3
		c0.1,0.4,0.1,0.9,0.1,1.4V22c0,0.5,0,1-0.1,1.4c-0.1,0.4-0.2,0.9-0.4,1.3c-0.2,0.4-0.4,0.8-0.7,1.2C69.1,26.3,68.7,26.6,68.4,27z
		 M65.7,28c0.4-0.2,0.8-0.4,1.2-0.6c0.4-0.2,0.7-0.5,1.1-0.8c0.3-0.3,0.6-0.6,0.9-1c0.3-0.3,0.5-0.7,0.7-1.1
		c0.2-0.4,0.3-0.8,0.4-1.2C70,22.9,70,22.4,70,22v-0.3c0-0.9-0.2-1.7-0.5-2.5c-0.2-0.4-0.4-0.8-0.7-1.1c-0.3-0.4-0.6-0.7-0.9-1h0
		c-0.3-0.3-0.7-0.6-1.1-0.8c-0.4-0.2-0.8-0.4-1.2-0.6c-0.4-0.2-0.8-0.3-1.3-0.3c-0.4-0.1-0.9-0.1-1.4-0.1h-3.1v13.2H63
		c0.5,0,0.9,0,1.4-0.1C64.8,28.2,65.3,28.1,65.7,28z"/>
	<path style="fill:#50A6CC;" d="M74.7,14.6h4.6V37h-4.6V14.6z"/>
</g>
</svg>
